<mxfile host="app.diagrams.net" agent="Mozilla/5.0 (X11; Ubuntu; Linux x86_64; rv:130.0) Gecko/20100101 Firefox/130.0" version="24.7.16">
  <diagram name="Page-1" id="psS7wmOHLbgppXE1PZr3">
    <mxGraphModel dx="2074" dy="1126" grid="1" gridSize="10" guides="1" tooltips="1" connect="1" arrows="1" fold="1" page="1" pageScale="1" pageWidth="850" pageHeight="1100" math="0" shadow="0">
      <root>
        <mxCell id="0" />
        <mxCell id="1" parent="0" />
        <mxCell id="XQQ9kC0VtD_jCIsFCZry-12" style="edgeStyle=orthogonalEdgeStyle;rounded=0;orthogonalLoop=1;jettySize=auto;html=1;startArrow=classic;startFill=1;endArrow=none;endFill=0;fontSize=18;fontStyle=0" edge="1" parent="1" source="yvPCApH2F3Dqxlk0UL5A-6" target="XQQ9kC0VtD_jCIsFCZry-8">
          <mxGeometry relative="1" as="geometry">
            <Array as="points">
              <mxPoint x="240" y="556" />
            </Array>
          </mxGeometry>
        </mxCell>
        <mxCell id="XQQ9kC0VtD_jCIsFCZry-14" value="1" style="edgeLabel;html=1;align=center;verticalAlign=middle;resizable=0;points=[];fontSize=18;fontStyle=0" vertex="1" connectable="0" parent="XQQ9kC0VtD_jCIsFCZry-12">
          <mxGeometry x="-0.7008" y="2" relative="1" as="geometry">
            <mxPoint x="8" y="-10" as="offset" />
          </mxGeometry>
        </mxCell>
        <mxCell id="XQQ9kC0VtD_jCIsFCZry-15" value="registrant" style="edgeLabel;html=1;align=center;verticalAlign=middle;resizable=0;points=[];fontSize=18;fontStyle=0" vertex="1" connectable="0" parent="XQQ9kC0VtD_jCIsFCZry-12">
          <mxGeometry x="-0.685" y="-2" relative="1" as="geometry">
            <mxPoint x="-48" y="-12" as="offset" />
          </mxGeometry>
        </mxCell>
        <mxCell id="XQQ9kC0VtD_jCIsFCZry-20" value="registrations" style="edgeLabel;html=1;align=center;verticalAlign=middle;resizable=0;points=[];fontSize=18;fontStyle=0" vertex="1" connectable="0" parent="XQQ9kC0VtD_jCIsFCZry-12">
          <mxGeometry x="0.5669" y="1" relative="1" as="geometry">
            <mxPoint x="-5" y="15" as="offset" />
          </mxGeometry>
        </mxCell>
        <mxCell id="XQQ9kC0VtD_jCIsFCZry-21" value="*" style="edgeLabel;html=1;align=center;verticalAlign=middle;resizable=0;points=[];fontSize=18;fontStyle=0" vertex="1" connectable="0" parent="XQQ9kC0VtD_jCIsFCZry-12">
          <mxGeometry x="0.315" y="1" relative="1" as="geometry">
            <mxPoint x="67" y="-15" as="offset" />
          </mxGeometry>
        </mxCell>
        <mxCell id="yvPCApH2F3Dqxlk0UL5A-6" value="Person" style="swimlane;fontStyle=0;childLayout=stackLayout;horizontal=1;startSize=26;fillColor=none;horizontalStack=0;resizeParent=1;resizeParentMax=0;resizeLast=0;collapsible=1;marginBottom=0;whiteSpace=wrap;html=1;fontSize=18;" parent="1" vertex="1">
          <mxGeometry x="160" y="246" width="160" height="156" as="geometry" />
        </mxCell>
        <mxCell id="XQQ9kC0VtD_jCIsFCZry-1" value="id: Integer" style="text;strokeColor=none;fillColor=none;align=left;verticalAlign=top;spacingLeft=4;spacingRight=4;overflow=hidden;rotatable=0;points=[[0,0.5],[1,0.5]];portConstraint=eastwest;whiteSpace=wrap;html=1;fontSize=18;fontStyle=0" vertex="1" parent="yvPCApH2F3Dqxlk0UL5A-6">
          <mxGeometry y="26" width="160" height="26" as="geometry" />
        </mxCell>
        <mxCell id="yvPCApH2F3Dqxlk0UL5A-7" value="name: String" style="text;strokeColor=none;fillColor=none;align=left;verticalAlign=top;spacingLeft=4;spacingRight=4;overflow=hidden;rotatable=0;points=[[0,0.5],[1,0.5]];portConstraint=eastwest;whiteSpace=wrap;html=1;fontSize=18;fontStyle=0" parent="yvPCApH2F3Dqxlk0UL5A-6" vertex="1">
          <mxGeometry y="52" width="160" height="26" as="geometry" />
        </mxCell>
        <mxCell id="yvPCApH2F3Dqxlk0UL5A-10" value="emailAddress: String" style="text;strokeColor=none;fillColor=none;align=left;verticalAlign=top;spacingLeft=4;spacingRight=4;overflow=hidden;rotatable=0;points=[[0,0.5],[1,0.5]];portConstraint=eastwest;whiteSpace=wrap;html=1;fontSize=18;fontStyle=0" parent="yvPCApH2F3Dqxlk0UL5A-6" vertex="1">
          <mxGeometry y="78" width="160" height="26" as="geometry" />
        </mxCell>
        <mxCell id="yvPCApH2F3Dqxlk0UL5A-8" value="password: String" style="text;strokeColor=none;fillColor=none;align=left;verticalAlign=top;spacingLeft=4;spacingRight=4;overflow=hidden;rotatable=0;points=[[0,0.5],[1,0.5]];portConstraint=eastwest;whiteSpace=wrap;html=1;fontSize=18;fontStyle=0" parent="yvPCApH2F3Dqxlk0UL5A-6" vertex="1">
          <mxGeometry y="104" width="160" height="26" as="geometry" />
        </mxCell>
        <mxCell id="yvPCApH2F3Dqxlk0UL5A-9" value="&lt;div style=&quot;font-size: 18px;&quot;&gt;creationDate: Date&lt;/div&gt;" style="text;strokeColor=none;fillColor=none;align=left;verticalAlign=top;spacingLeft=4;spacingRight=4;overflow=hidden;rotatable=0;points=[[0,0.5],[1,0.5]];portConstraint=eastwest;whiteSpace=wrap;html=1;fontSize=18;fontStyle=0" parent="yvPCApH2F3Dqxlk0UL5A-6" vertex="1">
          <mxGeometry y="130" width="160" height="26" as="geometry" />
        </mxCell>
        <mxCell id="XQQ9kC0VtD_jCIsFCZry-13" style="edgeStyle=orthogonalEdgeStyle;rounded=0;orthogonalLoop=1;jettySize=auto;html=1;endArrow=none;endFill=0;startArrow=classic;startFill=1;fontSize=18;fontStyle=0" edge="1" parent="1" source="yvPCApH2F3Dqxlk0UL5A-11" target="XQQ9kC0VtD_jCIsFCZry-8">
          <mxGeometry relative="1" as="geometry">
            <Array as="points">
              <mxPoint x="640" y="556" />
            </Array>
          </mxGeometry>
        </mxCell>
        <mxCell id="XQQ9kC0VtD_jCIsFCZry-16" value="1" style="edgeLabel;html=1;align=center;verticalAlign=middle;resizable=0;points=[];fontSize=18;fontStyle=0" vertex="1" connectable="0" parent="XQQ9kC0VtD_jCIsFCZry-13">
          <mxGeometry x="-0.791" y="4" relative="1" as="geometry">
            <mxPoint x="-24" y="-6" as="offset" />
          </mxGeometry>
        </mxCell>
        <mxCell id="XQQ9kC0VtD_jCIsFCZry-17" value="event" style="edgeLabel;html=1;align=center;verticalAlign=middle;resizable=0;points=[];fontSize=18;fontStyle=0" vertex="1" connectable="0" parent="XQQ9kC0VtD_jCIsFCZry-13">
          <mxGeometry x="-0.5672" y="-1" relative="1" as="geometry">
            <mxPoint x="31" y="-36" as="offset" />
          </mxGeometry>
        </mxCell>
        <mxCell id="XQQ9kC0VtD_jCIsFCZry-18" value="registrations" style="edgeLabel;html=1;align=center;verticalAlign=middle;resizable=0;points=[];fontSize=18;fontStyle=0" vertex="1" connectable="0" parent="XQQ9kC0VtD_jCIsFCZry-13">
          <mxGeometry x="0.6716" y="-2" relative="1" as="geometry">
            <mxPoint x="16" y="16" as="offset" />
          </mxGeometry>
        </mxCell>
        <mxCell id="XQQ9kC0VtD_jCIsFCZry-19" value="*" style="edgeLabel;html=1;align=center;verticalAlign=middle;resizable=0;points=[];fontSize=18;fontStyle=0" vertex="1" connectable="0" parent="XQQ9kC0VtD_jCIsFCZry-13">
          <mxGeometry x="0.1791" y="1" relative="1" as="geometry">
            <mxPoint x="-100" y="-17" as="offset" />
          </mxGeometry>
        </mxCell>
        <mxCell id="yvPCApH2F3Dqxlk0UL5A-11" value="Event" style="swimlane;fontStyle=0;childLayout=stackLayout;horizontal=1;startSize=26;fillColor=none;horizontalStack=0;resizeParent=1;resizeParentMax=0;resizeLast=0;collapsible=1;marginBottom=0;whiteSpace=wrap;html=1;fontSize=18;" parent="1" vertex="1">
          <mxGeometry x="538" y="220" width="210" height="208" as="geometry" />
        </mxCell>
        <mxCell id="XQQ9kC0VtD_jCIsFCZry-2" value="id: Integer" style="text;strokeColor=none;fillColor=none;align=left;verticalAlign=top;spacingLeft=4;spacingRight=4;overflow=hidden;rotatable=0;points=[[0,0.5],[1,0.5]];portConstraint=eastwest;whiteSpace=wrap;html=1;fontSize=18;fontStyle=0" vertex="1" parent="yvPCApH2F3Dqxlk0UL5A-11">
          <mxGeometry y="26" width="210" height="26" as="geometry" />
        </mxCell>
        <mxCell id="yvPCApH2F3Dqxlk0UL5A-12" value="name: String" style="text;strokeColor=none;fillColor=none;align=left;verticalAlign=top;spacingLeft=4;spacingRight=4;overflow=hidden;rotatable=0;points=[[0,0.5],[1,0.5]];portConstraint=eastwest;whiteSpace=wrap;html=1;fontSize=18;fontStyle=0" parent="yvPCApH2F3Dqxlk0UL5A-11" vertex="1">
          <mxGeometry y="52" width="210" height="26" as="geometry" />
        </mxCell>
        <mxCell id="yvPCApH2F3Dqxlk0UL5A-13" value="description: String" style="text;strokeColor=none;fillColor=none;align=left;verticalAlign=top;spacingLeft=4;spacingRight=4;overflow=hidden;rotatable=0;points=[[0,0.5],[1,0.5]];portConstraint=eastwest;whiteSpace=wrap;html=1;fontSize=18;fontStyle=0" parent="yvPCApH2F3Dqxlk0UL5A-11" vertex="1">
          <mxGeometry y="78" width="210" height="26" as="geometry" />
        </mxCell>
        <mxCell id="yvPCApH2F3Dqxlk0UL5A-14" value="date: Date" style="text;strokeColor=none;fillColor=none;align=left;verticalAlign=top;spacingLeft=4;spacingRight=4;overflow=hidden;rotatable=0;points=[[0,0.5],[1,0.5]];portConstraint=eastwest;whiteSpace=wrap;html=1;fontSize=18;fontStyle=0" parent="yvPCApH2F3Dqxlk0UL5A-11" vertex="1">
          <mxGeometry y="104" width="210" height="26" as="geometry" />
        </mxCell>
        <mxCell id="yvPCApH2F3Dqxlk0UL5A-15" value="startTime: Time" style="text;strokeColor=none;fillColor=none;align=left;verticalAlign=top;spacingLeft=4;spacingRight=4;overflow=hidden;rotatable=0;points=[[0,0.5],[1,0.5]];portConstraint=eastwest;whiteSpace=wrap;html=1;fontSize=18;fontStyle=0" parent="yvPCApH2F3Dqxlk0UL5A-11" vertex="1">
          <mxGeometry y="130" width="210" height="26" as="geometry" />
        </mxCell>
        <mxCell id="yvPCApH2F3Dqxlk0UL5A-16" value="endTime: Time" style="text;strokeColor=none;fillColor=none;align=left;verticalAlign=top;spacingLeft=4;spacingRight=4;overflow=hidden;rotatable=0;points=[[0,0.5],[1,0.5]];portConstraint=eastwest;whiteSpace=wrap;html=1;fontSize=18;fontStyle=0" parent="yvPCApH2F3Dqxlk0UL5A-11" vertex="1">
          <mxGeometry y="156" width="210" height="26" as="geometry" />
        </mxCell>
        <mxCell id="yvPCApH2F3Dqxlk0UL5A-17" value="registrationLimit: Integer" style="text;strokeColor=none;fillColor=none;align=left;verticalAlign=top;spacingLeft=4;spacingRight=4;overflow=hidden;rotatable=0;points=[[0,0.5],[1,0.5]];portConstraint=eastwest;whiteSpace=wrap;html=1;fontSize=18;fontStyle=0" parent="yvPCApH2F3Dqxlk0UL5A-11" vertex="1">
          <mxGeometry y="182" width="210" height="26" as="geometry" />
        </mxCell>
        <mxCell id="XQQ9kC0VtD_jCIsFCZry-8" value="&lt;div&gt;Registration&lt;/div&gt;&lt;div&gt;&lt;br&gt;&lt;/div&gt;" style="swimlane;fontStyle=0;align=center;verticalAlign=top;childLayout=stackLayout;horizontal=1;startSize=26;horizontalStack=0;resizeParent=1;resizeParentMax=0;resizeLast=0;collapsible=1;marginBottom=0;whiteSpace=wrap;html=1;fontSize=18;" vertex="1" parent="1">
          <mxGeometry x="340" y="530" width="160" height="52" as="geometry" />
        </mxCell>
      </root>
    </mxGraphModel>
  </diagram>
</mxfile>
